<?xml version="1.0" encoding="UTF-8"?>
<svg width="25px" height="22px" viewBox="0 0 25 22" version="1.1" xmlns="http://www.w3.org/2000/svg" xmlns:xlink="http://www.w3.org/1999/xlink">
    <title>arrowRight</title>
    <g id="Motion" stroke="none" stroke-width="1" fill="none" fill-rule="evenodd">
        <g id="Elect-x-Siam-Lab---Home" transform="translate(-416.000000, -625.000000)" fill="#212121" fill-rule="nonzero">
            <g id="Group-4" transform="translate(0.000000, 64.000000)">
                <g id="Group-3" transform="translate(250.000000, 540.000000)">
                    <g id="Group-2" transform="translate(24.000000, 15.000000)">
                        <path d="M155.46875,27.25 C155.84375,27.25 156.166667,27.125 156.4375,26.875 L156.4375,26.875 L165.6875,17.96875 C165.979167,17.6979167 166.125,17.3697917 166.125,16.984375 C166.125,16.5989583 165.979167,16.2708333 165.6875,16 L165.6875,16 L156.5,7.125 C156.208333,6.875 155.880208,6.75 155.515625,6.75 C155.151042,6.75 154.833333,6.890625 154.5625,7.171875 C154.291667,7.453125 154.15625,7.78125 154.15625,8.15625 C154.15625,8.53125 154.302083,8.85416667 154.59375,9.125 L154.59375,9.125 L161.34375,15.625 L143.40625,15.625 C143.010417,15.6458333 142.677083,15.7916667 142.40625,16.0625 C142.135417,16.3333333 142,16.6770833 142,17.09375 C142.041667,17.4479167 142.1875,17.75 142.4375,18 C142.6875,18.25 143,18.375 143.375,18.375 L143.375,18.375 L161.28125,18.375 L154.53125,24.875 C154.260417,25.1666667 154.119792,25.4947917 154.109375,25.859375 C154.098958,26.2239583 154.229167,26.546875 154.5,26.828125 C154.770833,27.109375 155.09375,27.25 155.46875,27.25 Z" id="arrowRight"></path>
                    </g>
                </g>
            </g>
        </g>
    </g>
</svg>